<svg height="53.161201mm" viewBox="0 0 51.877094 53.161201" width="51.877094mm" xmlns="http://www.w3.org/2000/svg"><g transform="matrix(.72173333 0 0 .72173333 141.457014 35.37458)"><path d="m0 0s-4.484-4.226-4.484-14.851 16.769-30.625 56.384-30.625c39.616 0 53.116 13.875 53.116 25.25s-2.792 12.708-2.792 12.708z" fill="#1fbfca" transform="matrix(.35277777 0 0 -.35277777 -171.70416 8.601389)"/><path d="m0 0-4.086-.337s-1.243-11.309-1.243-14.687c0-7.673 15.443-27.664 52.565-27.664 31.872 0 50.935 9.953 50.935 22.099v13.985l-7.591 3.897z" fill="#c22828" transform="matrix(.35277777 0 0 -.35277777 -170.27428 8.482539)"/><path d="m0 0s-2.59-1.499-2.59-12.169c0-7.581 15.257-27.331 51.933-27.331 31.49 0 50.324 9.833 50.324 21.833 0 14.5-7.5 17.667-7.5 17.667z" fill="#ed2d26" transform="matrix(.35277777 0 0 -.35277777 -170.80208 5.020899)"/><path d="m0 0-28.562-27.74v-95.166l29.624-11.75z" fill="#116c7e" transform="matrix(.35277777 0 0 -.35277777 -177.76203 -43.276561)"/><path d="m0 0 .574 7.125h-38.407s-2.591-1.499-2.591-12.169c0-2.132 1.207-5.227 3.758-8.575z" fill="#d7292a" transform="matrix(.35277777 0 0 -.35277777 -157.45526 7.534449)"/><path d="m0 0c0-3.266-6.375-5.913-14.24-5.913s-14.24 2.647-14.24 5.913c0 3.267 6.375 5.913 14.24 5.913s14.24-2.646 14.24-5.913" fill="#ebeadb" transform="matrix(.35277777 0 0 -.35277777 -148.37123 8.601389)"/><path d="m-148.37123 5.791719h-10.04711v2.80988h10.04711z" fill="#ebeadb"/><path d="m0 0c0-3.267-6.375-5.913-14.24-5.913s-14.24 2.646-14.24 5.913c0 3.266 6.375 5.913 14.24 5.913s14.24-2.647 14.24-5.913" fill="#cbcdc5" transform="matrix(.35277777 0 0 -.35277777 -148.37123 5.791579)"/><path d="m-148.37123 3.903659h-10.04711v1.73461h10.04711z" fill="#cbcdc5"/><path d="m0 0h-68c-6.6 0-12-5.4-12-12v-116c0-6.6 5.4-12 12-12h68z" fill="#1fbfca" transform="matrix(.35277777 0 0 -.35277777 -150.92887 -44.367981)"/><path d="m0 0h-64v-140h64c6.6 0 12 5.4 12 12v116c0 6.6-5.4 12-12 12" fill="#92d5e3" transform="matrix(.35277777 0 0 -.35277777 -128.35109 -44.367981)"/><path d="m0 0v-5.5l32.648-4.046.227 8.171z" fill="#ed2d26" transform="matrix(.35277777 0 0 -.35277777 -146.69554 -48.380831)"/><path d="m0 0-41.083 3.418-.417-10.084 41.125.166z" fill="#ed2d26" transform="matrix(.35277777 0 0 -.35277777 -153.48651 -47.807571)"/><path d="m0 0c0-15.33-7.219-27.758-16.125-27.758s-16.125 12.428-16.125 27.758 7.219 27.758 16.125 27.758 16.125-12.428 16.125-27.758" fill="#1fbfca" transform="matrix(.35277777 0 0 -.35277777 -181.97331 -17.909651)"/><path d="m0 0c-.108 0-5.711.023-5.82.023-6.93 0-12.548-11.037-12.548-24.636 0-13.6 5.618-24.631 12.548-24.631.109 0 5.712-.012 5.82-.012 6.931 0 12.548 11.027 12.548 24.628s-5.617 24.628-12.548 24.628" fill="#c22828" transform="matrix(.35277777 0 0 -.35277777 -187.5466 -26.596801)"/><path d="m0 0c0-13.6-5.578-24.625-12.458-24.625-6.881 0-12.459 11.025-12.459 24.625s5.578 24.625 12.459 24.625c6.88 0 12.458-11.025 12.458-24.625" fill="#ed2d26" transform="matrix(.35277777 0 0 -.35277777 -185.23651 -17.909651)"/><path d="m0 0c0-3.383-1.679-6.125-3.75-6.125s-3.75 2.742-3.75 6.125 1.679 6.125 3.75 6.125 3.75-2.742 3.75-6.125" fill="#c22828" transform="matrix(.35277777 0 0 -.35277777 -189.55803 -18.130141)"/><path d="m0 0h-10.875c-1.104 0-2-2.742-2-6.125s.896-6.125 2-6.125h10.875c1.104 0 2 2.742 2 6.125s-.896 6.125-2 6.125" fill="#92d5e3" transform="matrix(.35277777 0 0 -.35277777 -191.45422 -20.290901)"/><path d="m0 0c-1.042.008-4.266.84-4.349.832-12.234-1.086-20.401-9.461-20.401-20.127s8.908-19.326 19.896-19.326c.084 0 3.812-.002 4.854-.002z" fill="#c22828" transform="matrix(.35277777 0 0 -.35277777 -139.99276 -31.551531)"/><path d="m0 0c0-10.988-8.908-19.896-19.896-19.896-10.989 0-19.897 8.908-19.897 19.896s8.908 19.896 19.897 19.896c10.988 0 19.896-8.908 19.896-19.896" fill="#ed2d26" transform="matrix(.35277777 0 0 -.35277777 -133.23124 -24.943161)"/><path d="m0 0c0-7.951-6.446-14.398-14.398-14.398s-14.398 6.447-14.398 14.398 6.446 14.398 14.398 14.398 14.398-6.447 14.398-14.398" fill="#b4d9e8" transform="matrix(.35277777 0 0 -.35277777 -135.0387 -25.075451)"/><path d="m0 0c0-4.182-3.39-7.57-7.571-7.57s-7.571 3.388-7.571 7.57 3.39 7.57 7.571 7.57 7.571-3.388 7.571-7.57" fill="#fff" transform="matrix(.35277777 0 0 -.35277777 -137.49128 -25.031351)"/><path d="m0 0c-1.042.008-4.266.84-4.349.832-12.234-1.086-20.401-9.461-20.401-20.127s8.908-19.326 19.896-19.326c.084 0 3.812-.002 4.854-.002z" fill="#c22828" transform="matrix(.35277777 0 0 -.35277777 -159.39554 -31.551531)"/><path d="m0 0c0-10.988-8.908-19.896-19.896-19.896-10.989 0-19.897 8.908-19.897 19.896s8.908 19.896 19.897 19.896c10.988 0 19.896-8.908 19.896-19.896" fill="#ed2d26" transform="matrix(.35277777 0 0 -.35277777 -152.63402 -24.943161)"/><path d="m0 0c0-7.951-6.446-14.398-14.398-14.398s-14.398 6.447-14.398 14.398 6.446 14.398 14.398 14.398 14.398-6.447 14.398-14.398" fill="#b4d9e8" transform="matrix(.35277777 0 0 -.35277777 -154.44148 -25.075451)"/><path d="m0 0c0-4.182-3.39-7.57-7.571-7.57s-7.571 3.388-7.571 7.57 3.39 7.57 7.571 7.57 7.571-3.388 7.571-7.57" fill="#fff" transform="matrix(.35277777 0 0 -.35277777 -156.89406 -25.031351)"/><path d="m0 0c.07-4.725-3.702-8.61-8.426-8.68s-8.609 3.702-8.679 8.427c-.07 4.723 3.702 8.608 8.426 8.678 4.723.07 8.609-3.701 8.679-8.425" fill="#116c7e" transform="matrix(.35277777 0 0 -.35277777 -156.80498 -7.286001)"/><path d="m0 0c.07-4.724-3.702-8.61-8.426-8.68s-8.609 3.702-8.679 8.427c-.07 4.724 3.702 8.609 8.425 8.679 4.724.069 8.61-3.702 8.68-8.426" fill="#116c7e" transform="matrix(.35277777 0 0 -.35277777 -138.27367 -7.560241)"/><path d="m0 0s-11.162-12.342-32.756-12.661c-18.804-.278-31.421 12.65-31.421 12.65l12.321 11.853s9.5-8.029 19.708-7.822c13.944.28 20.337 8.343 20.337 8.343z" fill="#116c7e" transform="matrix(.35277777 0 0 -.35277777 -139.38005 -5.182771)"/><path d="m0 0c0-4.788-3.881-8.67-8.668-8.67-4.788 0-8.669 3.882-8.669 8.67 0 4.787 3.881 8.668 8.669 8.668 4.787 0 8.668-3.881 8.668-8.668" fill="#ed2d26" transform="matrix(.35277777 0 0 -.35277777 -156.51906 -8.281291)"/><path d="m0 0c0-4.788-3.881-8.67-8.668-8.67-4.789 0-8.669 3.882-8.669 8.67 0 4.787 3.88 8.668 8.669 8.668 4.787 0 8.668-3.881 8.668-8.668" fill="#ed2d26" transform="matrix(.35277777 0 0 -.35277777 -137.73674 -8.281291)"/><path d="m0 0s-11.496-12.338-33.383-12.338c-19.058 0-31.65 13.291-31.65 13.291l12.663 11.824s9.507-8.277 19.853-8.222c14.135.076 20.734 8.15 20.734 8.15z" fill="#ed2d26" transform="matrix(.35277777 0 0 -.35277777 -138.89343 -5.888321)"/><g fill="#fff"><path d="m-149.10854-3.483861h-1.47496v-1.88701h1.47496z"/><path d="m0 0-4.076.926 1.183 5.217 4.078-.926z" transform="matrix(.35277777 0 0 -.35277777 -151.67284 -3.580141)"/><path d="m0 0-3.894 1.521 1.946 4.982 3.894-1.52z" transform="matrix(.35277777 0 0 -.35277777 -154.05857 -4.178521)"/><path d="m0 0-3.727 1.894 2.423 4.768 3.727-1.893z" transform="matrix(.35277777 0 0 -.35277777 -156.28908 -5.076651)"/><path d="m0 0-3.383 2.456 3.142 4.327 3.383-2.456z" transform="matrix(.35277777 0 0 -.35277777 -158.47725 -6.252141)"/><path d="m-150.5835-3.483861h1.47496v-1.88701h-1.47496z"/><path d="m0 0 4.076.926-1.183 5.217-4.078-.926z" transform="matrix(.35277777 0 0 -.35277777 -148.01898 -3.580141)"/><path d="m0 0 3.894 1.521-1.946 4.982-3.894-1.52z" transform="matrix(.35277777 0 0 -.35277777 -145.63325 -4.178521)"/><path d="m0 0 3.727 1.894-2.423 4.768-3.727-1.893z" transform="matrix(.35277777 0 0 -.35277777 -143.40271 -5.076651)"/><path d="m0 0 3.383 2.456-3.142 4.327-3.383-2.456z" transform="matrix(.35277777 0 0 -.35277777 -141.21457 -6.252141)"/><path d="m0 0v-3.166s6.917.75 11.333-3.666c4.416-4.417 4-10.668 4-10.668h3s1.334 9.668-3.833 14.168-14.5 3.332-14.5 3.332" transform="matrix(.35277777 0 0 -.35277777 -132.42508 -42.839041)"/></g></g></svg>